<?xml version="1.0" encoding="UTF-8"?>
<svg id="Layer_2" data-name="Layer 2" xmlns="http://www.w3.org/2000/svg" viewBox="0 0 496.34 113.45">
  <g id="Layer_1-2" data-name="Layer 1">
    <path d="M16.64,54.96v33.28H0V0h34.54c4.54,0,8.49.74,11.85,2.21,3.36,1.47,6.15,3.4,8.38,5.8,2.23,2.39,3.91,5.13,5.04,8.19,1.13,3.07,1.7,6.2,1.7,9.39v3.03c0,3.28-.57,6.49-1.7,9.64-1.13,3.15-2.82,5.97-5.04,8.45-2.23,2.48-5.02,4.47-8.38,5.99-3.36,1.51-7.31,2.27-11.85,2.27h-17.9ZM16.64,39.08h16.26c3.7,0,6.62-1.01,8.76-3.03,2.14-2.02,3.21-4.62,3.21-7.82v-1.51c0-3.19-1.07-5.8-3.21-7.82-2.14-2.02-5.06-3.03-8.76-3.03h-16.26v23.19Z"/>
    <path d="M79.79,62.15c.08,1.85.52,3.55,1.32,5.11.8,1.56,1.89,2.9,3.28,4.03,1.39,1.13,2.98,2.02,4.79,2.65,1.81.63,3.72.95,5.74.95,3.95,0,6.97-.69,9.08-2.08,2.1-1.39,3.61-3.05,4.54-4.98l13.61,7.56c-.76,1.6-1.81,3.26-3.15,4.98-1.35,1.72-3.09,3.3-5.23,4.73-2.14,1.43-4.75,2.61-7.82,3.53-3.07.92-6.66,1.39-10.78,1.39-4.71,0-8.99-.76-12.86-2.27-3.87-1.51-7.21-3.7-10.02-6.56-2.82-2.86-5-6.34-6.55-10.46-1.56-4.12-2.33-8.78-2.33-13.99v-.76c0-4.79.82-9.16,2.46-13.11,1.64-3.95,3.89-7.31,6.74-10.08,2.86-2.77,6.2-4.94,10.02-6.49,3.82-1.55,7.92-2.33,12.29-2.33,5.38,0,10,.95,13.87,2.84,3.86,1.89,7.06,4.29,9.58,7.18,2.52,2.9,4.37,6.09,5.55,9.58,1.18,3.49,1.76,6.87,1.76,10.15v8.45h-45.88ZM94.79,38.32c-4.03,0-7.31,1.03-9.83,3.09-2.52,2.06-4.16,4.43-4.92,7.12h29.5c-.5-2.94-2.08-5.38-4.73-7.31-2.65-1.93-5.99-2.9-10.02-2.9Z"/>
    <path d="M129.08,25.72h18.53V0h15.88v25.72h22.56v15.13h-22.56v28.49c0,2.52,1.13,3.78,3.4,3.78h16.89v15.13h-26.47c-2.86,0-5.19-.92-7-2.77-1.81-1.85-2.71-4.2-2.71-7.06v-37.57h-18.53v-15.13Z"/>
    <path d="M208.9,72.36h8.32V15.88h-8.32V0h38.7c4.2,0,7.92.59,11.16,1.76,3.23,1.18,5.97,2.77,8.19,4.79,2.23,2.02,3.91,4.43,5.04,7.25,1.13,2.82,1.7,5.86,1.7,9.14v1.51c0,5.04-1.41,9.08-4.22,12.1-2.82,3.03-6.37,5.13-10.65,6.3v2.27c4.29,1.18,7.83,3.3,10.65,6.37,2.81,3.07,4.22,7.12,4.22,12.16v1.51c0,3.28-.57,6.32-1.7,9.14-1.13,2.82-2.82,5.25-5.04,7.31-2.23,2.06-4.96,3.68-8.19,4.85-3.24,1.18-6.96,1.76-11.16,1.76h-38.7v-15.88ZM233.86,36.05h12.1c3.53,0,6.39-.73,8.57-2.21,2.18-1.47,3.28-3.97,3.28-7.5v-.76c0-3.53-1.09-6.03-3.28-7.5-2.19-1.47-5.04-2.21-8.57-2.21h-12.1v20.17ZM233.86,72.36h12.1c3.53,0,6.39-.76,8.57-2.27,2.18-1.51,3.28-4.03,3.28-7.56v-.76c0-3.53-1.09-6.05-3.28-7.56-2.19-1.51-5.04-2.27-8.57-2.27h-12.1v20.42Z"/>
    <path d="M387.68,113.45h-15.88V25.72h15.88v9.08h2.27c1.68-3.45,4.12-6.11,7.31-8,3.19-1.89,7.27-2.84,12.23-2.84,3.7,0,7.2.71,10.53,2.14,3.32,1.43,6.22,3.51,8.7,6.24,2.48,2.73,4.45,6.07,5.92,10.02,1.47,3.95,2.21,8.45,2.21,13.49v2.27c0,5.13-.71,9.66-2.14,13.61-1.43,3.95-3.36,7.29-5.8,10.02-2.44,2.73-5.32,4.79-8.63,6.18-3.32,1.39-6.91,2.08-10.78,2.08-2.86,0-5.34-.29-7.44-.88-2.1-.59-3.93-1.39-5.48-2.4-1.56-1.01-2.86-2.16-3.91-3.47-1.05-1.3-1.95-2.67-2.71-4.1h-2.27v34.29ZM404.31,74.88c4.96,0,8.97-1.53,12.04-4.6,3.07-3.07,4.6-7.25,4.6-12.54v-1.51c0-5.29-1.53-9.47-4.6-12.54-3.07-3.07-7.08-4.6-12.04-4.6s-8.97,1.58-12.04,4.73c-3.07,3.15-4.6,7.29-4.6,12.42v1.51c0,5.13,1.53,9.27,4.6,12.42,3.07,3.15,7.08,4.73,12.04,4.73Z"/>
    <path d="M460.03,43.36c0,2.02,1.05,3.47,3.15,4.35,2.1.88,5.92,1.62,11.47,2.21,6.38.67,11.6,2.58,15.63,5.74,4.03,3.15,6.05,7.54,6.05,13.17v.76c0,6.22-2.27,11.18-6.81,14.88-4.54,3.7-10.93,5.55-19.16,5.55-4.88,0-9.04-.63-12.48-1.89-3.45-1.26-6.3-2.84-8.57-4.73-2.27-1.89-4.01-3.99-5.23-6.3-1.22-2.31-2.04-4.56-2.46-6.74l14.62-4.79c.67,2.69,2.08,5.04,4.22,7.06s5.44,3.03,9.9,3.03c3.95,0,6.66-.61,8.13-1.83,1.47-1.22,2.21-2.54,2.21-3.97,0-.84-.19-1.62-.57-2.33-.38-.71-1.07-1.39-2.08-2.02-1.01-.63-2.38-1.15-4.1-1.58-1.72-.42-3.89-.76-6.49-1.01-7.06-.59-12.67-2.42-16.83-5.48-4.16-3.07-6.24-7.58-6.24-13.55v-.76c0-3.11.67-5.84,2.02-8.19,1.34-2.35,3.11-4.35,5.29-5.99,2.18-1.64,4.71-2.88,7.56-3.72,2.86-.84,5.8-1.26,8.82-1.26,3.95,0,7.38.48,10.27,1.45,2.9.97,5.36,2.23,7.37,3.78,2.02,1.56,3.66,3.28,4.92,5.17s2.23,3.72,2.9,5.48l-14.37,5.8c-.76-2.27-2.06-4.05-3.91-5.36-1.85-1.3-4.24-1.95-7.19-1.95-2.69,0-4.71.48-6.05,1.45-1.34.97-2.02,2.17-2.02,3.59Z"/>
    <path d="M320.46,71.34c-1.38,1.26.05,14.54-3.65,18.27-5.18,5.21-19.41-2.43-24.37-5.98-3.61-2.58-14.62-12.63-10.17-17.21,2.82-2.9,9.12.17,12.64.3,10.76.41,16.87-12.86,7.33-18.69-9.18-5.61-14.22,5.11-21.35,7.72-3.99,1.46-5.21-.52-6.59-4.02-10.86-27.57,35.96-37.19,54.59-35,16.44,1.93,45.94,11.28,39.53,33.21-4.5,15.41-14.15-3.02-22.96-3.4-13.65-.59-13.38,20.63,1.54,20.18,3.44-.1,13.73-4.36,13.94,2.28.29,9.39-20.15,21.3-28.51,22.31-8.2.99-8.97-4.52-9.86-11.02-.07-.54,0-10.89-2.13-8.96Z"/>
  </g>
</svg>